<svg width="48" height="48" viewBox="0 0 48 48" fill="none" xmlns="http://www.w3.org/2000/svg">
<path d="M21.4023 37.9445C21.4023 38.5488 21.2217 39.1396 20.8832 39.642C20.5447 40.1445 20.0636 40.5362 19.5007 40.7674C18.9378 40.9987 18.3184 41.0592 17.7209 40.9413C17.1233 40.8234 16.5745 40.5324 16.1436 40.1051C15.7128 39.6777 15.4194 39.1333 15.3006 38.5406C15.1817 37.9479 15.2427 37.3335 15.4759 36.7752C15.709 36.2168 16.1039 35.7396 16.6104 35.4039C17.117 35.0681 17.7126 34.8889 18.3219 34.8889C19.1376 34.8929 19.9188 35.2161 20.4956 35.7883C21.0724 36.3605 21.3983 37.1353 21.4023 37.9445ZM34.3403 34.8889C33.731 34.8889 33.1355 35.0681 32.6289 35.4039C32.1223 35.7396 31.7275 36.2168 31.4943 36.7752C31.2612 37.3335 31.2002 37.9479 31.319 38.5406C31.4379 39.1333 31.7313 39.6777 32.1621 40.1051C32.5929 40.5324 33.1418 40.8234 33.7393 40.9413C34.3369 41.0592 34.9563 40.9987 35.5191 40.7674C36.082 40.5362 36.5631 40.1445 36.9016 39.642C37.2401 39.1396 37.4208 38.5488 37.4208 37.9445C37.4167 37.1353 37.0909 36.3605 36.514 35.7883C35.9372 35.2161 35.156 34.8929 34.3403 34.8889ZM41.9336 16.4486L38.2063 29.3431C37.9465 30.2348 37.4024 31.0191 36.6554 31.5782C35.9084 32.1374 34.9988 32.4413 34.063 32.4445H18.5991C17.6633 32.4413 16.7537 32.1374 16.0068 31.5782C15.2598 31.0191 14.7156 30.2348 14.4559 29.3431L10.7439 16.4792C10.7439 16.4639 10.7285 16.4334 10.7285 16.4181L9.35771 11.6667H7.84828C7.35809 11.6667 6.88797 11.4735 6.54135 11.1297C6.19473 10.7859 6 10.3196 6 9.83336C6 9.34713 6.19473 8.88082 6.54135 8.537C6.88797 8.19318 7.35809 8.00003 7.84828 8.00003H9.81978C10.4891 8.00507 11.139 8.22299 11.6741 8.62176C12.2092 9.02053 12.6012 9.57909 12.7924 10.2153L13.9014 14.1111H40.147C40.4329 14.1128 40.7145 14.1796 40.9702 14.3065C41.2259 14.4334 41.4487 14.6169 41.6214 14.8429C41.7941 15.0688 41.9121 15.3312 41.9663 15.6096C42.0204 15.8881 42.0093 16.1752 41.9336 16.4486ZM37.698 17.7778H14.9642L17.9984 28.3348C18.0378 28.4625 18.1174 28.5744 18.2254 28.6541C18.3335 28.7338 18.4644 28.7771 18.5991 28.7778H34.063C34.1977 28.7771 34.3286 28.7338 34.4367 28.6541C34.5448 28.5744 34.6243 28.4625 34.6637 28.3348L37.698 17.7778Z" fill="#444748"/>
</svg>
